<svg xmlns="http://www.w3.org/2000/svg" viewBox="0 0 24 24" fill="currentColor" width="24" height="24" aria-hidden="true">
  <path d="M12 .5C5.73.5.74 5.49.74 11.76c0 4.93 3.2 9.11 7.64 10.59.56.1.77-.24.77-.53 0-.26-.01-1-.02-1.95-3.11.68-3.77-1.5-3.77-1.5-.51-1.3-1.24-1.65-1.24-1.65-1.01-.69.08-.68.08-.68 1.12.08 1.71 1.15 1.71 1.15 .99 1.7 2.6 1.21 3.24.93.1-.72.39-1.21.71-1.49-2.48-.28-5.09-1.24-5.09-5.52 0-1.22.44-2.21 1.16-2.99-.12-.29-.5-1.46.11-3.04 0 0 .95-.3 3.12 1.15.9-.25 1.86-.37 2.82-.38.96.01 1.92.13 2.82.38 2.17-1.45 3.12-1.15 3.12-1.15 .61 1.58.23 2.75.11 3.04 .72.78 1.16 1.77 1.16 2.99 0 4.29-2.62 5.24-5.11 5.51.4.35.76 1.04.76 2.1 0 1.52-.01 2.75-.01 3.12 0 .29.21.64.78.53 4.44-1.48 7.64-5.66 7.64-10.59C23.26 5.49 18.27.5 12 .5z"/>
</svg>