<svg xmlns="http://www.w3.org/2000/svg" viewBox="0 0 24 24" fill="currentColor" width="24" height="24" aria-hidden="true">
  <path d="M23 4.56c-.8.36-1.66.6-2.56.71.92-.55 1.63-1.43 1.96-2.48-.86.51-1.82.88-2.84 1.08C18.98 3 17.82 2.5 16.56 2.5c-2.1 0-3.8 1.7-3.8 3.8 0 .3.03.6.1.89C9.46 6.98 6.1 5.2 4.05 2.6c-.33.57-.52 1.23-.52 1.93 0 1.33.68 2.5 1.72 3.18-.63-.02-1.23-.2-1.75-.5v.05c0 1.84 1.31 3.38 3.05 3.73-.32.09-.66.14-1.01.14-.25 0-.5-.03-.74-.07.5 1.56 1.95 2.7 3.67 2.73C8.1 15.7 6.09 16.5 3.86 16.5c-.25 0-.5 0-.74-.04 1.39.9 3.04 1.43 4.82 1.43 5.78 0 8.95-4.79 8.95-8.94v-.41c.61-.44 1.13-1 1.55-1.63-.57.25-1.18.42-1.82.5C21.4 5.96 22.24 5.35 23 4.56z"/>
</svg>